<svg width="45" height="45" viewBox="0 0 45 45" fill="none" xmlns="http://www.w3.org/2000/svg">
<path d="M11.25 35.625V37.5C11.25 38.0312 11.0703 38.4766 10.7109 38.8359C10.3516 39.1953 9.90625 39.375 9.375 39.375H7.5C6.96875 39.375 6.52344 39.1953 6.16406 38.8359C5.80469 38.4766 5.625 38.0312 5.625 37.5V22.5L9.5625 11.25C9.75 10.6875 10.0859 10.2344 10.5703 9.89062C11.0547 9.54687 11.5937 9.375 12.1875 9.375H32.8125C33.4063 9.375 33.9453 9.54687 34.4297 9.89062C34.9141 10.2344 35.25 10.6875 35.4375 11.25L39.375 22.5V37.5C39.375 38.0312 39.1953 38.4766 38.8359 38.8359C38.4766 39.1953 38.0312 39.375 37.5 39.375H35.625C35.0938 39.375 34.6484 39.1953 34.2891 38.8359C33.9297 38.4766 33.75 38.0312 33.75 37.5V35.625H11.25ZM10.875 18.75H34.125L32.1562 13.125H12.8438L10.875 18.75ZM14.0625 30C14.8437 30 15.5078 29.7266 16.0547 29.1797C16.6016 28.6328 16.875 27.9687 16.875 27.1875C16.875 26.4063 16.6016 25.7422 16.0547 25.1953C15.5078 24.6484 14.8437 24.375 14.0625 24.375C13.2813 24.375 12.6172 24.6484 12.0703 25.1953C11.5234 25.7422 11.25 26.4063 11.25 27.1875C11.25 27.9687 11.5234 28.6328 12.0703 29.1797C12.6172 29.7266 13.2813 30 14.0625 30ZM30.9375 30C31.7187 30 32.3828 29.7266 32.9297 29.1797C33.4766 28.6328 33.75 27.9687 33.75 27.1875C33.75 26.4063 33.4766 25.7422 32.9297 25.1953C32.3828 24.6484 31.7187 24.375 30.9375 24.375C30.1563 24.375 29.4922 24.6484 28.9453 25.1953C28.3984 25.7422 28.125 26.4063 28.125 27.1875C28.125 27.9687 28.3984 28.6328 28.9453 29.1797C29.4922 29.7266 30.1563 30 30.9375 30ZM9.375 31.875H35.625V22.5H9.375V31.875Z" fill="#D8930D"/>
</svg>
