<svg width="45" height="45" viewBox="0 0 45 45" fill="none" xmlns="http://www.w3.org/2000/svg">
<path d="M19.6875 29.0625H25.3125V24.375H30V18.75H25.3125V14.0625H19.6875V18.75H15V24.375H19.6875V29.0625ZM22.5 41.25C18.1563 40.1562 14.5703 37.6641 11.7422 33.7734C8.91406 29.8828 7.5 25.5625 7.5 20.8125V9.375L22.5 3.75L37.5 9.375V20.8125C37.5 25.5625 36.0859 29.8828 33.2578 33.7734C30.4297 37.6641 26.8437 40.1562 22.5 41.25ZM22.5 37.3125C25.75 36.2812 28.4375 34.2188 30.5625 31.125C32.6875 28.0312 33.75 24.5937 33.75 20.8125V11.9531L22.5 7.73438L11.25 11.9531V20.8125C11.25 24.5937 12.3125 28.0312 14.4375 31.125C16.5625 34.2188 19.25 36.2812 22.5 37.3125Z" fill="#D8930D"/>
</svg>
