<svg width="45" height="45" viewBox="0 0 45 45" fill="none" xmlns="http://www.w3.org/2000/svg">
<path d="M24.3281 41.1562V37.4062C25.6406 37.2188 26.9141 36.8594 28.1484 36.3281C29.3828 35.7969 30.5469 35.125 31.6406 34.3125L34.3594 37.0312C32.8906 38.1875 31.3125 39.1172 29.625 39.8203C27.9375 40.5234 26.1719 40.9688 24.3281 41.1562ZM36.9844 34.3125L34.3594 31.6875C35.1719 30.6562 35.8281 29.5234 36.3281 28.2891C36.8281 27.0547 37.1719 25.75 37.3594 24.375H41.2031C40.9531 26.3125 40.4766 28.1172 39.7734 29.7891C39.0703 31.4609 38.1406 32.9688 36.9844 34.3125ZM37.3594 20.625C37.1719 19.2188 36.8281 17.8984 36.3281 16.6641C35.8281 15.4297 35.1719 14.3125 34.3594 13.3125L36.9844 10.6875C38.1719 12.0625 39.1328 13.5938 39.8672 15.2812C40.6016 16.9688 41.0469 18.75 41.2031 20.625H37.3594ZM20.5781 41.1562C15.7969 40.5938 11.8047 38.5469 8.60156 35.0156C5.39844 31.4844 3.79688 27.3125 3.79688 22.5C3.79688 17.6562 5.39844 13.4688 8.60156 9.9375C11.8047 6.40625 15.7969 4.375 20.5781 3.84375V7.59375C16.8281 8.125 13.7188 9.79688 11.25 12.6094C8.78125 15.4219 7.54688 18.7188 7.54688 22.5C7.54688 26.2812 8.78125 29.5703 11.25 32.3672C13.7188 35.1641 16.8281 36.8438 20.5781 37.4062V41.1562ZM31.7344 10.6875C30.6094 9.84375 29.4219 9.15625 28.1719 8.625C26.9219 8.09375 25.6406 7.75 24.3281 7.59375V3.84375C26.1719 4 27.9375 4.42969 29.625 5.13281C31.3125 5.83594 32.8906 6.78125 34.3594 7.96875L31.7344 10.6875ZM22.5 31.875C20.6875 30.3437 18.9844 28.7031 17.3906 26.9531C15.7969 25.2031 15 23.1562 15 20.8125C15 18.6875 15.7266 16.875 17.1797 15.375C18.6328 13.875 20.4063 13.125 22.5 13.125C24.5938 13.125 26.3672 13.875 27.8203 15.375C29.2734 16.875 30 18.6875 30 20.8125C30 23.1562 29.2031 25.2031 27.6094 26.9531C26.0156 28.7031 24.3125 30.3437 22.5 31.875ZM22.5 22.5C23.0625 22.5 23.5391 22.3047 23.9297 21.9141C24.3203 21.5234 24.5156 21.0469 24.5156 20.4844C24.5156 19.9531 24.3203 19.4844 23.9297 19.0781C23.5391 18.6719 23.0625 18.4688 22.5 18.4688C21.9375 18.4688 21.4609 18.6719 21.0703 19.0781C20.6797 19.4844 20.4844 19.9531 20.4844 20.4844C20.4844 21.0469 20.6797 21.5234 21.0703 21.9141C21.4609 22.3047 21.9375 22.5 22.5 22.5Z" fill="#D8930D"/>
</svg>
